<?xml version="1.0" encoding="utf-8"?>
<!-- Generator: Adobe Illustrator 23.0.1, SVG Export Plug-In . SVG Version: 6.00 Build 0)  -->
<svg version="1.1" id="Layer_1" xmlns="http://www.w3.org/2000/svg" xmlns:xlink="http://www.w3.org/1999/xlink" x="0px" y="0px"
	 viewBox="0 0 612 312" style="enable-background:new 0 0 612 312;" xml:space="preserve">
<style type="text/css">
	.st0{fill-rule:evenodd;clip-rule:evenodd;fill:#7C7C7F;}
	.st1{fill-rule:evenodd;clip-rule:evenodd;fill:#ACACAD;}
</style>
<g>
	<path class="st0" d="M531.51,226.96c4.21-0.69,7.24-2.7,7.24-2.7C537.54,106.55,456.46,17,304.53,17C181.87,17,71,107.95,71,226.96
		c0,13.04,10.74,23.62,23.99,23.62c13.25,0,24-10.58,24-23.62c0-109.13,99.29-194.38,210.73-194.38
		C441.16,32.58,531.51,117.83,531.51,226.96L531.51,226.96z"/>
	<path class="st1" d="M150.99,142.92v107.66h25.91v-69.46c0,0,1.56-18.99,21.22-18.99c19.66,0,19.88,18.54,19.88,18.99v69.46h25.91
		v-69.46c0,0,1.12-18.99,20.77-18.99s19.21,17.65,19.21,18.99v69.46h25.91v-69.46c0,0,0-41.32-34.4-41.32
		c-25.91,0-35.96,20.33-35.96,20.33s-7.37-20.33-31.05-20.33c-21.44,0-33.06,18.54-33.06,18.54L174,142.92H150.99L150.99,142.92z
		 M379.71,196.02v16.81c0,0,0.22,21.22-20.55,21.22c-14.19,0-17.42-8.94-17.42-16.53c0-6.54,6.36-19.1,23.67-20.1
		C373.72,196.94,379.71,196.02,379.71,196.02L379.71,196.02z M322.75,150.29l5.36,16.75c0,0,14.74-8.26,31.94-8.26
		c20.1,0,19.66,21.22,19.66,21.22s-64.55-2.46-64.55,39.98c0,33.73,29.48,32.61,33.73,32.61c4.24,0,17.2,1.34,33.28-14.74
		c0.22-0.22,0.6,8.92,0.67,10.39c0.11,2.34,0.78,2.34,0.78,2.34h25.02c0,0-1.56-1.57-1.56-4.47v-65c0,0,1.23-41.32-42.77-41.32
		C337.27,139.79,322.75,150.29,322.75,150.29L322.75,150.29z M447.16,162.13v56.06c0,10.5,9.16,14.29,14.74,14.29
		c5.58,0,10.05-2.9,10.05-2.9v19.66c0,0-5.58,3.8-17.64,3.8c-35.51,0-33.5-27.92-33.5-27.92v-62.99h-14.97V142.7h14.97v-19.66
		l26.13-8.71v28.37h40.87v-19.66l26.13-8.71v28.59h25.69v19.21h-25.46v56.06c0,10.5,9.16,14.29,14.74,14.29s10.05-2.9,10.05-2.9
		v19.66c0,0-5.58,3.8-17.64,3.8c-35.51,0-33.5-27.92-33.5-27.92v-62.99H447.16L447.16,162.13z"/>
	<path class="st1" d="M521.77,279.26c0.94-4.42,4.02-8.5,8.88-8.5c4.03,0,5.95,2.51,5.04,6.78l-3.38,15.92h2.95l3.28-15.43
		c0.61-2.85,1.48-9.98-6.58-9.98c-3.19,0-6.3,1.43-8.67,4.47l0.55-3.74h-3.05c-0.26,1.67-0.53,3.64-0.93,5.55l-4.06,19.12h2.95
		L521.77,279.26L521.77,279.26z M485.76,268.06c-7.86,0-12.9,6.58-14.28,13.07c-1.38,6.49,0.86,13.07,8.72,13.07
		c7.86,0,12.9-6.58,14.28-13.07C495.86,274.64,493.62,268.06,485.76,268.06L485.76,268.06z M491.29,281.13
		c-0.97,4.57-4.56,10.37-10.51,10.37c-5.95,0-7.07-5.8-6.1-10.37c0.97-4.57,4.56-10.37,10.51-10.37
		C491.13,270.76,492.26,276.56,491.29,281.13L491.29,281.13z M452.66,257.99h-3.44l-0.78,3.68h3.44L452.66,257.99L452.66,257.99z
		 M447.17,268.79l-5.24,24.67h2.95l5.24-24.67H447.17L447.17,268.79z M411.18,286.88c-0.71,3.34-1.9,7.32,4.34,7.32
		c0.98,0,2.11-0.2,3.09-0.44l0.54-2.56c-0.84,0.25-1.73,0.3-2.62,0.3c-2.26,0-3.18-1.23-2.65-3.49l3.51-16.51h5.6l0.57-2.7h-5.6
		l1.39-6.54l-3.22,1.28l-1.12,5.26h-4.91l-0.58,2.7h4.92L411.18,286.88L411.18,286.88z M382.41,278.33c-3.63,0.2-7.8-0.29-11.4,1.13
		c-3.21,1.23-5.77,3.78-6.48,7.13c-1.02,4.82,2.02,7.62,6.59,7.62c3.34,0,7.05-1.96,8.57-4.03l0.22-0.34l-0.58,3.64h3.05
		c0.26-1.67,0.48-3.64,0.94-5.55l2.49-11.7c1.3-5.65-1.56-8.16-7.01-8.16c-4.72,0-8.91,1.92-10.72,6.98h3.14
		c1.1-3.34,3.86-4.28,6.95-4.28c3.49,0,5.28,1.28,4.72,5.31L382.41,278.33L382.41,278.33z M367.73,286.58
		c1.32-6.19,9.9-5.41,14.1-5.55c-0.8,5.16-3.16,10.47-9.6,10.47C369.24,291.5,367.02,289.92,367.73,286.58L367.73,286.58z
		 M337.21,293.46h3.05c0.26-1.67,0.53-3.64,0.94-5.55l6.36-29.92h-2.95l-3.07,14.45c-1.22-2.8-4.33-4.37-7.62-4.37
		c-7.32,0-11.52,6.58-12.88,12.97c-1.32,6.19,0,13.17,7.32,13.17c3.44,0,6.78-1.62,9.42-4.57L337.21,293.46L337.21,293.46z
		 M339.72,280.54c-1.19,5.6-4.29,10.96-10.73,10.96c-5.65,0-5.65-6.24-4.68-10.81c1-4.72,3.93-9.93,9.53-9.93
		C339.58,270.76,340.78,275.53,339.72,280.54L339.72,280.54z M280.86,279.26c0.94-4.42,4.02-8.5,8.88-8.5
		c4.03,0,5.95,2.51,5.04,6.78l-3.38,15.92h2.95l3.28-15.43c0.61-2.85,1.48-9.98-6.58-9.98c-3.19,0-6.3,1.43-8.67,4.47l0.55-3.74
		h-3.05c-0.26,1.67-0.53,3.64-0.93,5.55l-4.06,19.12h2.95L280.86,279.26L280.86,279.26z M248.46,283c-0.94,4.42-4.02,8.5-8.88,8.5
		c-4.03,0-5.95-2.51-5.04-6.78l3.38-15.92h-2.95l-3.28,15.43c-0.61,2.85-1.48,9.98,6.58,9.98c3.19,0,6.3-1.42,8.67-4.47l-0.55,3.74
		h3.05c0.26-1.67,0.53-3.64,0.93-5.55l4.06-19.12h-2.95L248.46,283L248.46,283z M199.68,268.06c-7.86,0-12.9,6.58-14.28,13.07
		c-1.38,6.49,0.86,13.07,8.72,13.07c7.86,0,12.9-6.58,14.28-13.07C209.78,274.64,207.54,268.06,199.68,268.06L199.68,268.06z
		 M205.2,281.13c-0.97,4.57-4.56,10.37-10.51,10.37c-5.95,0-7.07-5.8-6.1-10.37c0.97-4.57,4.56-10.37,10.51-10.37
		C205.05,270.76,206.18,276.56,205.2,281.13L205.2,281.13z M155.4,293.46l4.67-21.96h5.6l0.57-2.7h-5.6l0.67-3.14
		c0.6-3.54,1.13-5.55,5.16-5.55c0.59,0,1.21,0.1,1.78,0.2l0.49-2.31c-0.83-0.25-1.74-0.59-2.68-0.59c-4.23,0-6.35,1.92-7.25,6.14
		l-1.12,5.26h-4.96l-0.57,2.7h4.96l-4.67,21.96H155.4L155.4,293.46z"/>
</g>
</svg>
