<?xml version="1.0" encoding="utf-8"?>
<!-- Generator: Adobe Illustrator 23.0.1, SVG Export Plug-In . SVG Version: 6.00 Build 0)  -->
<svg version="1.1" id="Layer_2" xmlns="http://www.w3.org/2000/svg" xmlns:xlink="http://www.w3.org/1999/xlink" x="0px" y="0px"
	 viewBox="0 0 850 372" style="enable-background:new 0 0 850 372;" xml:space="preserve">
<style type="text/css">
	.st0{fill:#FFFFFF;}
	.st1{fill:#E73037;stroke:#E73137;}
	.st2{fill:#007E48;stroke:#007E48;}
	.st3{fill:#004B93;stroke:#004B93;}
</style>
<g>
	<g>
		<path class="st0" d="M189.41,282.73h4.93v34.32h16.3v4.17h-21.23V282.73z"/>
		<path class="st0" d="M217.95,308.3c0.11,6.8,4.42,9.59,9.4,9.59c3.57,0,5.72-0.63,7.59-1.43l0.85,3.6
			c-1.75,0.8-4.76,1.71-9.11,1.71c-8.44,0-13.47-5.6-13.47-13.93c0-8.33,4.87-14.9,12.85-14.9c8.94,0,11.32,7.94,11.32,13.02
			c0,1.03-0.11,1.83-0.17,2.34H217.95z M232.55,304.71c0.06-3.2-1.3-8.16-6.91-8.16c-5.04,0-7.25,4.68-7.64,8.16H232.55z"/>
		<path class="st0" d="M258.71,321.21l-0.4-3.49h-0.17c-1.53,2.17-4.47,4.11-8.38,4.11c-5.55,0-8.38-3.94-8.38-7.94
			c0-6.68,5.89-10.34,16.47-10.28v-0.57c0-2.29-0.62-6.4-6.23-6.4c-2.55,0-5.21,0.8-7.13,2.06l-1.13-3.31
			c2.26-1.48,5.55-2.45,9-2.45c8.38,0,10.42,5.77,10.42,11.31v10.33c0,2.4,0.11,4.74,0.45,6.62H258.71z M257.98,307.1
			c-5.44-0.11-11.61,0.86-11.61,6.22c0,3.25,2.15,4.79,4.7,4.79c3.57,0,5.83-2.28,6.62-4.62c0.17-0.52,0.28-1.09,0.28-1.6V307.1z"/>
		<path class="st0" d="M294.49,280.67v33.4c0,2.45,0.06,5.25,0.23,7.14h-4.47l-0.23-4.8h-0.11c-1.53,3.08-4.87,5.43-9.34,5.43
			c-6.62,0-11.72-5.66-11.72-14.05c-0.06-9.2,5.6-14.85,12.29-14.85c4.19,0,7.02,2,8.26,4.22h0.11v-16.5H294.49z M289.51,304.82
			c0-0.63-0.06-1.49-0.23-2.11c-0.74-3.2-3.45-5.82-7.19-5.82c-5.15,0-8.21,4.57-8.21,10.68c0,5.6,2.72,10.22,8.1,10.22
			c3.34,0,6.4-2.23,7.3-6c0.17-0.68,0.23-1.37,0.23-2.17V304.82z"/>
		<path class="st0" d="M308.31,285.81c0.06,1.71-1.19,3.08-3.17,3.08c-1.75,0-3-1.37-3-3.08c0-1.77,1.3-3.14,3.11-3.14
			C307.12,282.67,308.31,284.04,308.31,285.81z M302.77,321.21v-27.64h4.98v27.64H302.77z"/>
		<path class="st0" d="M316.01,301.05c0-2.86-0.06-5.2-0.23-7.48h4.42l0.28,4.57h0.11c1.36-2.63,4.53-5.2,9.06-5.2
			c3.79,0,9.68,2.28,9.68,11.76v16.5h-4.98v-15.93c0-4.45-1.64-8.16-6.34-8.16c-3.28,0-5.83,2.34-6.68,5.14
			c-0.23,0.63-0.34,1.48-0.34,2.34v16.62h-4.98V301.05z"/>
		<path class="st0" d="M371.05,293.57c-0.11,2-0.23,4.22-0.23,7.59v16.04c0,6.34-1.25,10.22-3.91,12.62
			c-2.66,2.51-6.51,3.31-9.96,3.31c-3.28,0-6.91-0.8-9.11-2.28l1.25-3.83c1.81,1.14,4.64,2.17,8.04,2.17c5.09,0,8.83-2.68,8.83-9.65
			v-3.08h-0.11c-1.53,2.57-4.47,4.62-8.72,4.62c-6.79,0-11.66-5.82-11.66-13.47c0-9.37,6.06-14.68,12.34-14.68
			c4.75,0,7.36,2.51,8.55,4.8h0.11l0.23-4.17H371.05z M365.89,304.48c0-0.85-0.06-1.6-0.28-2.28c-0.91-2.91-3.34-5.31-6.96-5.31
			c-4.75,0-8.15,4.05-8.15,10.45c0,5.43,2.72,9.94,8.1,9.94c3.06,0,5.83-1.94,6.91-5.14c0.28-0.86,0.4-1.83,0.4-2.69V304.48z"/>
		<path class="st0" d="M396.19,286.95h-11.6v-4.22h28.25v4.22h-11.66v34.26h-4.98V286.95z"/>
		<path class="st0" d="M416.52,280.67h4.98v17.25h0.11c0.79-1.43,2.04-2.69,3.57-3.54c1.47-0.86,3.23-1.43,5.09-1.43
			c3.68,0,9.57,2.28,9.57,11.82v16.45h-4.98v-15.88c0-4.45-1.64-8.22-6.34-8.22c-3.23,0-5.77,2.28-6.68,5.02
			c-0.28,0.69-0.34,1.43-0.34,2.4v16.67h-4.98V280.67z"/>
		<path class="st0" d="M450.72,308.3c0.11,6.8,4.42,9.59,9.4,9.59c3.57,0,5.72-0.63,7.59-1.43l0.85,3.6
			c-1.75,0.8-4.75,1.71-9.11,1.71c-8.43,0-13.47-5.6-13.47-13.93c0-8.33,4.87-14.9,12.85-14.9c8.94,0,11.32,7.94,11.32,13.02
			c0,1.03-0.11,1.83-0.17,2.34H450.72z M465.32,304.71c0.06-3.2-1.3-8.16-6.91-8.16c-5.04,0-7.25,4.68-7.64,8.16H465.32z"/>
		<path class="st0" d="M515.15,319.95c-1.81,0.91-5.44,1.83-10.08,1.83c-10.76,0-18.85-6.85-18.85-19.47
			c0-12.05,8.1-20.21,19.93-20.21c4.75,0,7.75,1.03,9.06,1.71l-1.19,4.06c-1.87-0.92-4.53-1.6-7.7-1.6
			c-8.95,0-14.89,5.76-14.89,15.87c0,9.42,5.38,15.48,14.66,15.48c3,0,6.06-0.63,8.04-1.6L515.15,319.95z"/>
		<path class="st0" d="M545.33,307.16c0,10.22-7.02,14.68-13.64,14.68c-7.42,0-13.13-5.48-13.13-14.22c0-9.25,6-14.68,13.59-14.68
			C540.01,292.94,545.33,298.71,545.33,307.16z M523.59,307.45c0,6.05,3.45,10.62,8.32,10.62c4.75,0,8.32-4.51,8.32-10.74
			c0-4.68-2.32-10.62-8.21-10.62C526.14,296.71,523.59,302.19,523.59,307.45z"/>
		<path class="st0" d="M551.62,301.05c0-2.86-0.06-5.2-0.23-7.48h4.42l0.28,4.57h0.11c1.36-2.63,4.53-5.2,9.06-5.2
			c3.79,0,9.68,2.28,9.68,11.76v16.5h-4.98v-15.93c0-4.45-1.64-8.16-6.34-8.16c-3.28,0-5.83,2.34-6.68,5.14
			c-0.22,0.63-0.34,1.48-0.34,2.34v16.62h-4.98V301.05z"/>
		<path class="st0" d="M584.23,293.57l5.38,15.53c0.91,2.51,1.64,4.8,2.21,7.08h0.17c0.62-2.28,1.41-4.57,2.32-7.08l5.32-15.53h5.21
			l-10.76,27.64h-4.76l-10.42-27.64H584.23z"/>
		<path class="st0" d="M611.75,308.3c0.11,6.8,4.42,9.59,9.4,9.59c3.57,0,5.72-0.63,7.59-1.43l0.85,3.6
			c-1.76,0.8-4.75,1.71-9.12,1.71c-8.43,0-13.47-5.6-13.47-13.93c0-8.33,4.87-14.9,12.85-14.9c8.94,0,11.32,7.94,11.32,13.02
			c0,1.03-0.11,1.83-0.17,2.34H611.75z M626.35,304.71c0.06-3.2-1.3-8.16-6.91-8.16c-5.04,0-7.25,4.68-7.64,8.16H626.35z"/>
		<path class="st0" d="M637.34,302.19c0-3.26-0.06-6.05-0.23-8.62h4.36l0.17,5.42h0.23c1.24-3.71,4.24-6.05,7.58-6.05
			c0.57,0,0.96,0.06,1.42,0.17v4.74c-0.51-0.11-1.02-0.17-1.7-0.17c-3.51,0-6,2.68-6.68,6.45c-0.11,0.69-0.23,1.49-0.23,2.34v14.73
			h-4.92V302.19z"/>
		<path class="st0" d="M655.18,316.07c1.47,0.97,4.08,2,6.57,2c3.62,0,5.32-1.83,5.32-4.11c0-2.4-1.42-3.71-5.09-5.08
			c-4.92-1.77-7.25-4.51-7.25-7.82c0-4.46,3.57-8.11,9.46-8.11c2.77,0,5.21,0.8,6.74,1.71l-1.24,3.66c-1.08-0.69-3.06-1.6-5.61-1.6
			c-2.94,0-4.59,1.71-4.59,3.77c0,2.28,1.64,3.31,5.21,4.68c4.75,1.83,7.19,4.23,7.19,8.34c0,4.85-3.74,8.28-10.25,8.28
			c-3,0-5.77-0.74-7.7-1.89L655.18,316.07z"/>
		<path class="st0" d="M693.45,321.21l-0.4-3.49h-0.17c-1.53,2.17-4.47,4.11-8.38,4.11c-5.55,0-8.38-3.94-8.38-7.94
			c0-6.68,5.89-10.34,16.47-10.28v-0.57c0-2.29-0.62-6.4-6.23-6.4c-2.55,0-5.21,0.8-7.13,2.06l-1.13-3.31
			c2.26-1.48,5.55-2.45,9-2.45c8.38,0,10.42,5.77,10.42,11.31v10.33c0,2.4,0.11,4.74,0.46,6.62H693.45z M692.72,307.1
			c-5.43-0.11-11.61,0.86-11.61,6.22c0,3.25,2.15,4.79,4.7,4.79c3.57,0,5.83-2.28,6.62-4.62c0.17-0.52,0.28-1.09,0.28-1.6V307.1z"/>
		<path class="st0" d="M711.34,285.64v7.94h7.13v3.82h-7.13v14.9c0,3.42,0.96,5.37,3.74,5.37c1.3,0,2.26-0.17,2.89-0.34l0.23,3.77
			c-0.96,0.4-2.49,0.69-4.42,0.69c-2.32,0-4.19-0.74-5.38-2.11c-1.42-1.49-1.93-3.94-1.93-7.2V297.4h-4.25v-3.82h4.25v-6.62
			L711.34,285.64z"/>
		<path class="st0" d="M729.63,285.81c0.06,1.71-1.19,3.08-3.17,3.08c-1.76,0-3-1.37-3-3.08c0-1.77,1.3-3.14,3.11-3.14
			C728.44,282.67,729.63,284.04,729.63,285.81z M724.09,321.21v-27.64h4.98v27.64H724.09z"/>
		<path class="st0" d="M762.13,307.16c0,10.22-7.02,14.68-13.64,14.68c-7.42,0-13.13-5.48-13.13-14.22c0-9.25,6-14.68,13.59-14.68
			C756.81,292.94,762.13,298.71,762.13,307.16z M740.39,307.45c0,6.05,3.45,10.62,8.32,10.62c4.75,0,8.32-4.51,8.32-10.74
			c0-4.68-2.32-10.62-8.21-10.62C742.94,296.71,740.39,302.19,740.39,307.45z"/>
		<path class="st0" d="M768.42,301.05c0-2.86-0.06-5.2-0.23-7.48h4.42l0.28,4.57h0.11c1.36-2.63,4.53-5.2,9.06-5.2
			c3.79,0,9.68,2.28,9.68,11.76v16.5h-4.98v-15.93c0-4.45-1.64-8.16-6.34-8.16c-3.28,0-5.83,2.34-6.68,5.14
			c-0.22,0.63-0.34,1.48-0.34,2.34v16.62h-4.98V301.05z"/>
	</g>
	<g>
		<path class="st0" d="M187.45,133.07c0-19.54-0.35-35.94-1.4-50.6h36.98l1.75,25.13h1.05c8.37-13.26,23.73-28.96,52.33-28.96
			c22.33,0,39.77,12.56,47.1,31.41h0.7c5.93-9.43,12.91-16.4,20.93-21.29c9.42-6.62,20.24-10.11,34.19-10.11
			c28.26,0,56.87,19.19,56.87,73.62v100.12h-41.86v-93.85c0-28.26-9.77-45-30.35-45c-14.65,0-25.47,10.46-30.01,22.67
			c-1.05,4.19-2.09,9.41-2.09,14.3v101.88h-41.86V154c0-23.73-9.41-40.47-29.3-40.47c-16.05,0-26.87,12.55-30.7,24.42
			c-1.74,4.18-2.44,9.06-2.44,13.94v100.48h-41.86V133.07z"/>
		<path class="st0" d="M587,211.56c0,15.35,0.69,30.36,2.44,40.82h-38.72l-2.8-18.84h-1.05c-10.47,13.26-28.26,22.67-50.24,22.67
			c-34.18,0-53.38-24.77-53.38-50.59c0-42.91,38.02-64.54,100.83-64.19v-2.79c0-11.17-4.53-29.64-34.54-29.64
			c-16.74,0-34.19,5.22-45.7,12.55l-8.38-27.91c12.56-7.67,34.54-15,61.41-15c54.42,0,70.12,34.54,70.12,71.51V211.56z
			 M545.13,169.34c-30.35-0.69-59.31,5.93-59.31,31.75c0,16.74,10.82,24.42,24.42,24.42c17.1,0,29.66-11.17,33.5-23.37
			c1.04-3.14,1.39-6.64,1.39-9.42V169.34z"/>
		<path class="st0" d="M651.26,38.86v43.61h40.81v32.11h-40.81v75c0,20.59,5.59,31.41,21.99,31.41c8.02,0,11.85-0.7,16.75-2.1
			l0.7,32.79c-6.28,2.43-17.44,4.53-31.05,4.53c-15.7,0-28.95-5.57-36.97-14.3c-9.08-9.78-13.26-25.13-13.26-47.46v-79.88h-24.42
			V82.47h24.42V51.08L651.26,38.86z"/>
		<path class="st0" d="M754.92,38.86v43.61h40.83v32.11h-40.83v75c0,20.59,5.59,31.41,21.99,31.41c8.02,0,11.86-0.7,16.75-2.1
			l0.69,32.79c-6.28,2.43-17.44,4.53-31.06,4.53c-15.69,0-28.94-5.57-36.97-14.3c-9.07-9.78-13.26-25.13-13.26-47.46v-79.88h-24.42
			V82.47h24.42V51.08L754.92,38.86z"/>
	</g>
	<g>
		<path class="st1" d="M160.25,129.93c0,33.89-27.47,61.37-61.38,61.37c-33.9,0-61.38-27.48-61.38-61.37
			c0-33.91,27.48-61.39,61.38-61.39C132.78,68.54,160.25,96.02,160.25,129.93"/>
		<path class="st1" d="M160.56,209.46c0,13.42-10.89,24.32-24.33,24.32c-13.43,0-24.32-10.89-24.32-24.32
			c0-13.44,10.89-24.32,24.32-24.32C149.67,185.14,160.56,196.02,160.56,209.46"/>
		<path class="st1" d="M135.98,248.19c0,7.7-6.25,13.97-13.96,13.97c-7.72,0-13.97-6.26-13.97-13.97c0-7.71,6.25-13.96,13.97-13.96
			C129.73,234.23,135.98,240.48,135.98,248.19"/>
		<path class="st1" d="M110.78,264.32c0,4.92-3.99,8.9-8.9,8.9c-4.91,0-8.9-3.97-8.9-8.9c0-4.91,3.99-8.89,8.9-8.89
			C106.8,255.42,110.78,259.4,110.78,264.32"/>
		<path class="st2" d="M98.77,295.94c0,14.96-12.13,27.09-27.09,27.09c-14.96,0-27.09-12.13-27.09-27.09
			c0-14.96,12.14-27.09,27.09-27.09C86.64,268.84,98.77,280.98,98.77,295.94"/>
		<path class="st3" d="M155.88,296.16c0,14.98-12.13,27.1-27.08,27.1c-14.97,0-27.09-12.13-27.09-27.1
			c0-14.95,12.12-27.08,27.09-27.08C143.75,269.08,155.88,281.21,155.88,296.16"/>
	</g>
</g>
</svg>
