<?xml version="1.0" encoding="utf-8"?>
<!-- Generator: Adobe Illustrator 23.0.1, SVG Export Plug-In . SVG Version: 6.00 Build 0)  -->
<svg version="1.1" id="Capa_1" xmlns="http://www.w3.org/2000/svg" xmlns:xlink="http://www.w3.org/1999/xlink" x="0px" y="0px"
	 viewBox="0 0 32 26" style="enable-background:new 0 0 32 26;" xml:space="preserve">
<style type="text/css">
	.st0{fill:#293A56;}
</style>
<g transform="matrix( 1, 0, 0, 1, 0,0) ">
	<g>
		<g id="a">
			<path class="st0" d="M22.92,11.64c0-1.7-0.63-3.11-1.9-4.22c-1.26-1.17-2.84-1.75-4.74-1.75c-1.41,0-2.67,0.34-3.79,1.02
				c-1.11,0.63-2.03,1.58-2.77,2.84c-0.68,1.22-1.02,2.58-1.02,4.08c0,2.14,0.7,3.82,2.11,5.03c1.36,1.17,3.25,1.75,5.68,1.75
				c1.12,0,2.09-0.12,2.92-0.37c0.83-0.25,1.58-0.63,2.26-1.17c0.73-0.58,1.27-1.16,1.61-1.74H21.9c-0.34,0.38-0.71,0.7-1.1,0.94
				c-0.39,0.25-0.75,0.46-1.1,0.66c-0.87,0.44-1.94,0.66-3.21,0.66c-2.09,0-3.71-0.53-4.88-1.6c-1.22-0.98-1.82-2.41-1.82-4.3
				s0.63-3.47,1.9-4.74c1.17-1.26,2.67-1.9,4.52-1.9c1.56,0,2.87,0.46,3.94,1.38c1.02,0.92,1.53,2.06,1.53,3.42
				c0,0.73-0.12,1.39-0.36,1.97c-0.34,0.68-0.78,1.24-1.31,1.68c-0.49,0.39-0.9,0.58-1.24,0.58c-0.14,0-0.27-0.02-0.37-0.07
				c-0.1-0.15-0.14-0.27-0.14-0.37l1.31-6.34h-1.38l-0.22,1.24C17.38,9.31,16.6,8.8,15.63,8.8c-0.68,0-1.36,0.27-2.06,0.8
				c-0.52,0.42-0.98,1-1.37,1.75c-0.34,0.83-0.51,1.63-0.51,2.4c0,0.98,0.27,1.78,0.8,2.41c0.49,0.68,1.14,1.02,1.97,1.02
				c0.39,0,0.78-0.1,1.17-0.3c0.44-0.29,0.83-0.63,1.17-1.02c0,0.49,0.12,0.82,0.36,1.02c0.2,0.2,0.56,0.3,1.1,0.3
				c0.78,0,1.53-0.27,2.26-0.81c0.73-0.53,1.28-1.21,1.67-2.04C22.68,13.46,22.92,12.56,22.92,11.64 M17.02,10.62
				c0.29,0.39,0.44,0.9,0.44,1.53c0,0.97-0.29,1.89-0.87,2.77c-0.54,0.78-1.15,1.17-1.82,1.17c-0.49,0-0.9-0.22-1.24-0.66
				c-0.29-0.39-0.44-0.92-0.44-1.6c0-0.98,0.27-1.85,0.8-2.62c0.49-0.83,1.1-1.24,1.82-1.24C16.24,9.97,16.67,10.18,17.02,10.62z"/>
		</g>
	</g>
</g>
</svg>
