<?xml version="1.0" encoding="utf-8"?>
<!-- Generator: Adobe Illustrator 23.0.1, SVG Export Plug-In . SVG Version: 6.00 Build 0)  -->
<svg version="1.1" id="Capa_1" xmlns="http://www.w3.org/2000/svg" xmlns:xlink="http://www.w3.org/1999/xlink" x="0px" y="0px"
	 viewBox="0 0 126 160" style="enable-background:new 0 0 126 160;" xml:space="preserve">
<style type="text/css">
	.st0{fill:#9F2241;}
	.st1{fill:#FFFFFF;}
</style>
<g>
	<g>
		<g>
			<g>
				<circle class="st0" cx="13.4" cy="66.04" r="3.36"/>
				<circle class="st0" cx="6.33" cy="76.89" r="3.36"/>
				<circle class="st0" cx="10.04" cy="89.11" r="3.36"/>
				<circle class="st0" cx="111.72" cy="66.04" r="3.36"/>
				<circle class="st0" cx="118.79" cy="76.89" r="3.36"/>
				<circle class="st0" cx="115.08" cy="89.11" r="3.36"/>
				<path class="st0" d="M28.96,112.68c6.48,0,11.76-5.28,11.76-11.76c0-6.48-5.28-11.76-11.76-11.76S17.2,94.43,17.2,100.92
					C17.2,107.4,22.48,112.68,28.96,112.68z M28.96,94.2c3.71,0,6.72,3.01,6.72,6.72c0,3.71-3.01,6.72-6.72,6.72
					s-6.72-3.01-6.72-6.72C22.24,97.21,25.26,94.2,28.96,94.2z"/>
				<path class="st0" d="M84.4,100.92c0,6.48,5.28,11.76,11.76,11.76s11.76-5.28,11.76-11.76c0-6.48-5.28-11.76-11.76-11.76
					S84.4,94.43,84.4,100.92z M96.16,94.2c3.71,0,6.72,3.01,6.72,6.72c0,3.71-3.01,6.72-6.72,6.72c-3.71,0-6.72-3.01-6.72-6.72
					C89.44,97.21,92.45,94.2,96.16,94.2z"/>
				<path class="st0" d="M48.63,106.13c0,7.68,6.25,13.93,13.93,13.93s13.93-6.25,13.93-13.93c0-7.68-6.25-13.93-13.93-13.93
					S48.63,98.44,48.63,106.13z M71.45,106.13c0,4.9-3.99,8.89-8.89,8.89s-8.89-3.99-8.89-8.89c0-4.9,3.99-8.89,8.89-8.89
					S71.45,101.22,71.45,106.13z"/>
				<path class="st0" d="M96.83,117.08h-1.34c-9.03,0-16.8,5.47-20.19,13.27c-3.89-2.32-8.42-3.67-13.27-3.67s-9.38,1.36-13.27,3.68
					c-3.39-7.8-11.16-13.27-20.19-13.27H28.3c-12.16,0-22.01,9.86-22.01,22.01v5.99c0,1.39,1.13,2.52,2.52,2.52s2.52-1.13,2.52-2.52
					v-5.99c0-9.37,7.6-16.97,16.97-16.97h1.34c7.38,0,13.66,4.75,15.99,11.34c-5.25,4.77-8.57,11.62-8.57,19.25
					c0,1.39,1.13,2.52,2.52,2.52s2.52-1.13,2.52-2.52c0-4.93,1.72-9.47,4.58-13.05c1.32-1.66,2.87-3.12,4.63-4.31
					c3.36-2.29,7.42-3.64,11.79-3.64s8.43,1.34,11.79,3.64c1.79,1.22,3.36,2.71,4.7,4.4c2.82,3.57,4.51,8.07,4.51,12.96
					c0,1.39,1.13,2.52,2.52,2.52s2.52-1.13,2.52-2.52c0-7.63-3.32-14.49-8.57-19.25c2.33-6.6,8.61-11.34,15.99-11.34h0.26
					c9.37,0,16.97,7.6,16.97,16.97v5.99c0,1.39,1.13,2.52,2.52,2.52s2.52-1.13,2.52-2.52v-5.99
					C118.84,126.93,108.98,117.08,96.83,117.08z"/>
			</g>
		</g>
	</g>
	<g transform="translate(0,-952.36218)">
		<g>
			<path class="st1" d="M25.84,957.58c-0.98,0-2.04,0.3-2.79,1.05c-0.75,0.75-1.05,1.81-1.05,2.79v43.2c0,0.98,0.3,2.01,1.05,2.76
				c0.75,0.75,1.81,1.08,2.79,1.08h56.64c0.98,0,2.04-0.33,2.79-1.08c0.75-0.75,1.05-1.78,1.05-2.76v-43.2
				c0-0.98-0.3-2.04-1.05-2.79c-0.75-0.75-1.81-1.05-2.79-1.05H25.84z M25.84,961.42h56.64v4.8c-11.9,0-23.82,0-35.7,0
				c-1.01,0.05-1.88,1-1.83,2.01c0.05,1.01,1,1.88,2.01,1.83h35.52v34.56H25.84v-34.56h4.8c1.01,0.01,1.95-0.91,1.95-1.92
				c0-1.01-0.93-1.93-1.95-1.92h-4.8V961.42z M38.14,966.22c-1.01,0.05-1.88,1-1.83,2.01s1,1.88,2.01,1.83h0.96
				c1.01,0.01,1.95-0.91,1.95-1.92c0-1.01-0.93-1.93-1.95-1.92C38.91,966.22,38.5,966.22,38.14,966.22z M91.9,972.94
				c-1.01,0.05-1.88,1-1.83,2.01c0.05,1.01,1,1.88,2.01,1.83h4.8v42.24H40.24v-4.8c0.01-1.01-0.91-1.95-1.92-1.95
				s-1.93,0.93-1.92,1.95v4.8c0,0.76-0.01,1.74,0.78,2.67c0.79,0.93,1.98,1.17,3.06,1.17h56.64c1.08,0,2.27-0.24,3.06-1.17
				c0.79-0.93,0.78-1.91,0.78-2.67v-42.24c0-0.76,0.01-1.77-0.78-2.7c-0.79-0.93-1.98-1.14-3.06-1.14h-4.8
				C92.02,972.94,91.96,972.94,91.9,972.94z M32.56,973.9c-0.68,0-1.49,0.23-2.07,0.81c-0.58,0.58-0.81,1.39-0.81,2.07v15.36
				c0,0.68,0.23,1.46,0.81,2.04c0.58,0.58,1.39,0.84,2.07,0.84h22.08c0.68,0,1.49-0.26,2.07-0.84c0.58-0.58,0.81-1.36,0.81-2.04
				v-15.36c0-0.68-0.23-1.49-0.81-2.07s-1.39-0.81-2.07-0.81H32.56z M64.06,973.9c-1.01,0.05-1.88,1-1.83,2.01
				c0.05,1.01,1,1.88,2.01,1.83h11.52c1.01,0.01,1.95-0.91,1.95-1.92c0-1.01-0.93-1.93-1.95-1.92
				C71.87,973.9,67.94,973.9,64.06,973.9z M33.52,977.74h20.16v13.44H33.52V977.74z M64.06,981.58c-1.01,0.05-1.88,1-1.83,2.01
				c0.05,1.01,1,1.88,2.01,1.83h11.52c1.01,0.01,1.95-0.91,1.95-1.92c0-1.01-0.93-1.93-1.95-1.92
				C71.87,981.58,67.94,981.58,64.06,981.58z"/>
		</g>
	</g>
</g>
</svg>
