<?xml version="1.0" encoding="utf-8"?>
<!-- Generator: Adobe Illustrator 23.0.1, SVG Export Plug-In . SVG Version: 6.00 Build 0)  -->
<svg version="1.1" id="Capa_1" xmlns="http://www.w3.org/2000/svg" xmlns:xlink="http://www.w3.org/1999/xlink" x="0px" y="0px"
	 viewBox="0 0 111 111" style="enable-background:new 0 0 111 111;" xml:space="preserve">
<style type="text/css">
	.st0{fill:#9F2241;}
	.st1{fill:#FFFFFF;}
</style>
<g>
	<g>
		<path class="st0" d="M109.55,60.28c-0.07-13.47-15.18-21.63-15.82-21.97c-1.96-1.04-2.98-2.6-1.53-6.8
			c1.39-4.01,2.6-8.04,2.03-13.29C93.35,9.89,85.63,3.15,77,3.15c-0.05,0-0.1,0-0.16,0c-8.47,0-16.05,6.5-17.16,14.6
			c-1.22-0.28-2.47-0.44-3.75-0.44c-0.05,0-0.1,0-0.16,0c-0.25,0-0.49,0.02-0.74,0.04c-1.31-7.91-8.78-14.19-17.1-14.19
			c-0.06,0-0.1,0-0.16,0c-8.63,0-16.35,6.74-17.24,15.06c-0.57,5.25,0.64,9.28,2.03,13.29c1.45,4.21,0.44,5.77-1.37,6.73
			c-0.8,0.34-19.67,8.46-19.74,22.05C1.4,72.76,1.46,85.69,1.46,85.69c0,1.06,0.86,1.91,1.92,1.91h18.6c0,9.8,0.03,19.07,0.03,19.21
			c0,1.06,0.86,1.91,1.92,1.91h64.89c1.06,0,1.92-0.86,1.92-1.92c0,0,0.01-9.32,0-19.2h17.03c0.51,0,1-0.2,1.36-0.57
			c0.36-0.36,0.56-0.85,0.56-1.36L109.55,60.28z M86.9,104.88H25.84c-0.01-3.23-0.02-10.12-0.02-17.28c0-0.64,0-1.28,0-1.92
			c0-0.64,0-1.28,0-1.92c0-3.28,0.01-6.49,0.02-9.31c0.06-11.12,14.8-18.5,15-18.6c0.85-0.45,1.55-1,2.14-1.59
			c0.2,0.18,0.42,0.36,0.66,0.55c0.47,0.38,1.01,0.78,1.61,1.19c0.53,0.36,1.1,0.71,1.72,1.06c2.33,1.31,5.28,2.43,8.65,2.53
			c0.16,0,0.32,0.01,0.48,0.01c3.89,0,7.64-1.38,11.19-4.09c0.47-0.35,0.93-0.72,1.39-1.12c0.03-0.03,0.07-0.06,0.1-0.09
			c0.05,0.05,0.1,0.09,0.14,0.13c0.58,0.54,1.23,1.05,2.03,1.47c0.02,0.01,0.25,0.12,0.6,0.3c0.02,0.01,0.03,0.01,0.04,0.02
			c2.93,1.51,15.21,8.41,15.26,18.23c0.01,2.83,0.02,6.04,0.03,9.31c0,0.64,0,1.28,0,1.92c0,0.64,0,1.28,0,1.92
			C86.9,94.77,86.9,101.65,86.9,104.88z M5.31,60.3c0.05-11.05,17.22-18.45,17.54-18.6c0.85-0.45,1.55-1,2.14-1.59
			c2.32,2,6.86,5.16,12.64,5.33c0.16,0,0.32,0.01,0.48,0.01c0.78,0,1.55-0.07,2.32-0.18c0.05,0.13,0.09,0.27,0.13,0.4
			c1.45,4.21,0.44,5.77-1.47,6.78c-0.7,0.34-17.03,8.49-17.1,22c-0.01,2.83-0.02,6.05-0.02,9.33H5.29
			C5.28,79.72,5.26,69.88,5.31,60.3z M24.36,18.62c0.67-6.32,6.81-11.63,13.42-11.63c0.02,0,0.05,0,0.07,0c0,0,0.01,0,0.01,0
			c0.02,0,0.05,0,0.07,0c6.37,0,12.28,4.93,13.31,10.95c-3.29,0.91-6.24,2.79-8.49,5.27h-1.4h-2.89v-3.6v-2.39
			c0-1.06-0.86-1.92-1.92-1.92c-1.06,0-1.92,0.86-1.92,1.92v7.91c0,1.06,0.86,1.92,1.92,1.92h3.57c-0.83,1.66-1.39,3.44-1.59,5.32
			c-0.19,1.76-0.17,3.38-0.02,4.91c0.15,1.49,0.42,2.9,0.77,4.26c-0.5,0.05-1.01,0.07-1.52,0.06c-4.58-0.12-8.33-2.74-10.23-4.37
			c-0.26-0.23-0.48-0.42-0.67-0.6c0.38-1.8,0.18-3.92-0.67-6.38C24.67,25.84,23.93,22.68,24.36,18.62z M55.78,21.15
			c0.02,0,0.05,0,0.07,0c0,0,0.01,0,0.01,0c0.02,0,0.05,0,0.07,0c1.21,0,2.41,0.18,3.56,0.51c0.67,0.19,1.33,0.45,1.96,0.74
			c0.72,0.33,1.4,0.72,2.05,1.16c3.16,2.14,5.45,5.5,5.84,9.21c0.17,1.58,0.16,3.03-0.01,4.46c-0.07,0.59-0.17,1.19-0.29,1.79
			c-0.13,0.65-0.28,1.3-0.47,1.97c-0.17,0.61-0.35,1.24-0.56,1.89c-0.16,0.49-0.33,0.99-0.51,1.51c-0.38,1.1-0.6,2.12-0.73,3.1
			c-0.09,0.66-0.13,1.3-0.1,1.91c0.02,0.47,0.08,0.91,0.17,1.34c0.01,0.03,0.01,0.06,0.02,0.09c-0.01,0.01-0.02,0.02-0.03,0.03
			c-0.22,0.2-0.43,0.42-0.65,0.61c-0.24,0.21-0.49,0.39-0.73,0.59c-3.13,2.51-6.37,3.76-9.68,3.68c-2.83-0.07-5.34-1.1-7.3-2.26
			c-0.59-0.35-1.13-0.71-1.61-1.06c-0.51-0.37-0.95-0.73-1.32-1.05c-0.08-0.07-0.14-0.13-0.22-0.19c-0.17-0.15-0.32-0.29-0.46-0.41
			c0.38-1.8,0.18-3.92-0.67-6.38c-0.01-0.04-0.03-0.08-0.04-0.12c-0.22-0.63-0.41-1.23-0.6-1.81c-0.2-0.65-0.38-1.27-0.54-1.88
			c-0.29-1.12-0.51-2.2-0.64-3.28c-0.17-1.46-0.19-2.92-0.02-4.52c0.52-4.89,4.33-9.17,9.08-10.85c0.63-0.22,1.28-0.41,1.94-0.54
			c0.63-0.12,1.27-0.18,1.92-0.21C55.46,21.17,55.62,21.15,55.78,21.15z M63.43,18.62C64.1,12.3,70.24,6.99,76.85,6.99
			c0.02,0,0.05,0,0.07,0c0,0,0.01,0,0.01,0c0.03,0,0.05,0,0.07,0c6.61,0,12.75,5.31,13.42,11.63c0.44,4.06-0.31,7.21-1.84,11.62
			c-0.86,2.49-1.05,4.63-0.65,6.44c-0.23,0.21-0.45,0.44-0.68,0.64c-3.35,2.92-6.86,4.34-10.41,4.27c-1.52-0.04-2.93-0.36-4.23-0.82
			c0.26-1.13,0.46-2.29,0.58-3.51c0.15-1.53,0.17-3.14-0.02-4.89c-0.62-5.78-4.54-10.8-9.77-13.32
			C63.41,18.9,63.41,18.77,63.43,18.62z M90.7,74.43c-0.07-13.54-17.4-21.68-18.04-21.97c-0.87-0.46-1.53-1.04-1.9-1.88
			c-0.15-0.34-0.26-0.71-0.29-1.14c0,0,0-0.01,0-0.01c-0.04-0.93,0.17-2.1,0.71-3.62c0.06-0.17,0.07-0.35,0.08-0.52
			c0.09-0.27,0.19-0.54,0.28-0.81c1.57,0.54,3.3,0.91,5.16,0.96c0.16,0,0.32,0.01,0.48,0.01c4.43,0,8.68-1.78,12.66-5.29
			c0.59,0.58,1.26,1.1,2.09,1.55c0.14,0.07,13.72,7.44,13.78,18.6l0.12,23.47h-15.1C90.72,80.48,90.71,77.27,90.7,74.43z"/>
		<path class="st0" d="M76.13,27.05h5.52c1.06,0,1.92-0.86,1.92-1.92c0-1.06-0.86-1.92-1.92-1.92h-1.34h-2.26v-3.24v-2.75
			c0-1.06-0.86-1.92-1.92-1.92c-1.06,0-1.92,0.86-1.92,1.92v7.91C74.21,26.19,75.07,27.05,76.13,27.05z"/>
		<path class="st0" d="M52.06,31.45v4.35v2.91v0.23v2c0,0.09,0.04,0.17,0.05,0.26c0.09,0.66,0.49,1.21,1.08,1.48
			c0.24,0.11,0.51,0.18,0.79,0.18H55h1.22h2.34h1.24h0.51c0.4,0,0.75-0.15,1.05-0.36c0.34-0.23,0.6-0.54,0.74-0.93
			c0.07-0.2,0.13-0.41,0.13-0.64c0-0.53-0.22-1.02-0.57-1.36c-0.35-0.34-0.82-0.56-1.35-0.56h-1.28h-0.28h-2.71H55.9v-0.08v-4.61
			v-2.88c0-1.06-0.86-1.92-1.92-1.92c-0.07,0-0.13,0.03-0.19,0.04C52.82,29.67,52.06,30.46,52.06,31.45z"/>
		<path class="st1" d="M57.68,66.35c-4.95,0-9.22,2.92-11.21,7.13c-0.76,1.6-1.19,3.39-1.19,5.27c0,1.78,0.38,3.47,1.06,5
			c0.3,0.67,0.65,1.32,1.05,1.92c0.19,0.28,0.4,0.55,0.61,0.82l-1,1.1l-6.9,7.62c-0.71,0.79-0.65,2,0.13,2.71
			c0.37,0.33,0.83,0.5,1.29,0.5c0.52,0,1.05-0.21,1.42-0.63l7.88-8.71c1.96,1.3,4.32,2.07,6.85,2.07c3.38,0,6.44-1.36,8.68-3.56
			c0.6-0.58,1.14-1.23,1.6-1.92c0.41-0.6,0.76-1.25,1.05-1.92c0.68-1.53,1.06-3.22,1.06-5c0-2.3-0.64-4.44-1.73-6.29
			C66.19,68.82,62.22,66.35,57.68,66.35z M57.68,87.32c-1.87,0-3.59-0.62-5-1.64c-0.74-0.53-1.39-1.18-1.92-1.92
			c-1.02-1.41-1.65-3.13-1.65-5c0-4.72,3.84-8.57,8.56-8.57c4.72,0,8.57,3.84,8.57,8.57c0,1.87-0.62,3.59-1.65,5
			c-0.54,0.74-1.18,1.39-1.92,1.92C61.27,86.7,59.55,87.32,57.68,87.32z"/>
	</g>
</g>
</svg>
