<?xml version="1.0" encoding="utf-8"?>
<!-- Generator: Adobe Illustrator 23.0.1, SVG Export Plug-In . SVG Version: 6.00 Build 0)  -->
<svg version="1.1" id="Capa_1" xmlns="http://www.w3.org/2000/svg" xmlns:xlink="http://www.w3.org/1999/xlink" x="0px" y="0px"
	 viewBox="0 0 32 26" style="enable-background:new 0 0 32 26;" xml:space="preserve">
<style type="text/css">
	.st0{fill:#293A56;}
</style>
<path class="st0" d="M22.85,7.24l-1.08-1.08c-0.76-0.76-2-0.76-2.76,0l-9.76,9.76c-0.06,0.06-0.11,0.15-0.12,0.24l-0.54,3.79
	C8.57,20.07,8.61,20.2,8.7,20.3c0.08,0.08,0.19,0.12,0.3,0.12c0.02,0,0.04,0,0.06,0l3.79-0.54c0.09-0.01,0.17-0.05,0.24-0.12
	L22.85,10C23.61,9.24,23.61,8,22.85,7.24z M12.6,19.06l-3.1,0.44l0.44-3.1l7.95-7.95l2.66,2.66L12.6,19.06z M22.25,9.4l-1.11,1.11
	l-2.66-2.66l1.11-1.11c0.43-0.43,1.14-0.43,1.57,0l1.08,1.08C22.69,8.26,22.69,8.97,22.25,9.4z"/>
</svg>
