<?xml version="1.0" encoding="utf-8"?>
<!-- Generator: Adobe Illustrator 23.0.1, SVG Export Plug-In . SVG Version: 6.00 Build 0)  -->
<svg version="1.1" id="Capa_1" xmlns="http://www.w3.org/2000/svg" xmlns:xlink="http://www.w3.org/1999/xlink" x="0px" y="0px"
	 viewBox="0 0 32 26" style="enable-background:new 0 0 32 26;" xml:space="preserve">
<style type="text/css">
	.st0{fill:#293A56;}
</style>
<g>
	<title>Messages, sms, text, ui, user, interface, app</title>
	<g>
		<path class="st0" d="M23.29,4.12H8.71C7.5,4.12,6.52,5.1,6.52,6.3v8.75c0,1.21,0.98,2.19,2.19,2.19h2l6.39,3.55
			c0.11,0.06,0.23,0.09,0.36,0.09c0.13,0,0.26-0.04,0.37-0.1c0.22-0.13,0.36-0.37,0.36-0.63v-2.92h5.1c1.21,0,2.19-0.98,2.19-2.19
			V6.3C25.48,5.1,24.5,4.12,23.29,4.12z M24.02,15.05c0,0.4-0.33,0.73-0.73,0.73h-5.83c-0.4,0-0.73,0.33-0.73,0.73v2.41l-5.47-3.04
			c-0.11-0.06-0.23-0.09-0.36-0.09H8.71c-0.4,0-0.73-0.33-0.73-0.73V6.3c0-0.4,0.33-0.73,0.73-0.73h14.58c0.4,0,0.73,0.33,0.73,0.73
			V15.05z M16.67,10.4c0.08,0.18,0.08,0.38,0,0.55c-0.04,0.09-0.09,0.17-0.15,0.24c-0.21,0.21-0.52,0.27-0.79,0.15
			c-0.09-0.04-0.17-0.09-0.24-0.15c-0.21-0.21-0.27-0.52-0.15-0.79c0.03-0.09,0.09-0.17,0.15-0.24c0.07-0.06,0.15-0.12,0.24-0.15
			c0.18-0.07,0.38-0.07,0.55,0C16.46,10.07,16.6,10.22,16.67,10.4z M20.32,10.4c0.11,0.27,0.05,0.58-0.15,0.79
			c-0.07,0.06-0.15,0.12-0.24,0.15c-0.27,0.11-0.58,0.05-0.79-0.15c-0.06-0.07-0.12-0.15-0.15-0.24c-0.08-0.18-0.08-0.38,0-0.55
			c0.07-0.18,0.21-0.33,0.39-0.39c0.18-0.07,0.38-0.07,0.55,0c0.09,0.04,0.17,0.09,0.24,0.15C20.23,10.23,20.28,10.31,20.32,10.4z
			 M13.03,10.4c0.08,0.18,0.08,0.38,0,0.55c-0.04,0.09-0.09,0.17-0.15,0.24c-0.21,0.21-0.52,0.27-0.79,0.15
			c-0.09-0.04-0.17-0.09-0.24-0.15c-0.21-0.21-0.27-0.52-0.15-0.79c0.03-0.09,0.09-0.17,0.15-0.24c0.07-0.06,0.15-0.12,0.24-0.15
			c0.18-0.07,0.38-0.07,0.55,0C12.82,10.07,12.96,10.22,13.03,10.4z"/>
	</g>
</g>
</svg>
