<?xml version="1.0" encoding="utf-8"?>
<!-- Generator: Adobe Illustrator 23.0.1, SVG Export Plug-In . SVG Version: 6.00 Build 0)  -->
<svg version="1.1" id="Capa_1" xmlns="http://www.w3.org/2000/svg" xmlns:xlink="http://www.w3.org/1999/xlink" x="0px" y="0px"
	 viewBox="0 0 32 26" style="enable-background:new 0 0 32 26;" xml:space="preserve">
<style type="text/css">
	.st0{fill:#293A56;}
</style>
<g>
	<path class="st0" d="M15.91,22.68c-0.21,0-0.41-0.11-0.52-0.3l-2.67-4.63c-2.8-1.24-4.61-4-4.61-7.09c0-4.27,3.48-7.75,7.75-7.75
		s7.75,3.48,7.75,7.75c0,3.02-1.75,5.75-4.47,7.03l-2.71,4.69C16.32,22.57,16.12,22.68,15.91,22.68z M15.86,4.11
		c-3.61,0-6.55,2.94-6.55,6.55c0,2.66,1.59,5.04,4.05,6.06c0.12,0.05,0.22,0.14,0.29,0.25l2.25,3.91l2.29-3.96
		c0.06-0.11,0.16-0.2,0.28-0.25c2.39-1.04,3.94-3.4,3.94-6.01C22.41,7.05,19.47,4.11,15.86,4.11z"/>
	<path class="st0" d="M15.86,15.12c-2.48,0-4.5-2.02-4.5-4.5s2.02-4.5,4.5-4.5s4.5,2.02,4.5,4.5S18.34,15.12,15.86,15.12z
		 M15.86,7.31c-1.82,0-3.3,1.48-3.3,3.3s1.48,3.3,3.3,3.3c1.82,0,3.3-1.48,3.3-3.3S17.68,7.31,15.86,7.31z"/>
</g>
</svg>
