<?xml version="1.0" encoding="utf-8"?>
<!-- Generator: Adobe Illustrator 23.0.1, SVG Export Plug-In . SVG Version: 6.00 Build 0)  -->
<svg version="1.1" id="Capa_1" xmlns="http://www.w3.org/2000/svg" xmlns:xlink="http://www.w3.org/1999/xlink" x="0px" y="0px"
	 viewBox="0 0 111 111" style="enable-background:new 0 0 111 111;" xml:space="preserve">
<style type="text/css">
	.st0{fill:#FFFFFF;}
	.st1{fill:#9F2241;}
</style>
<g>
	<g>
		<path class="st0" d="M105.57,71.28L82.32,57.64l-3.81-17.15c-0.12-0.52-0.44-0.98-0.89-1.26l-16-10
			c-0.92-0.57-2.12-0.31-2.72,0.59l-7.75,11.63l-9.61,5.77c-0.6,0.36-0.97,1.01-0.97,1.71v11.53l-5.79,11.58
			c-0.47,0.93-0.14,2.07,0.76,2.61l14.68,8.83c0.43,0.26,0.95,0.35,1.44,0.24l17.38-3.63l23.5,12.7c0.3,0.16,0.62,0.24,0.95,0.24
			c0.33,0,0.66-0.08,0.96-0.25l11.09-6.1c0.64-0.35,1.04-1.02,1.04-1.75V73.01C106.56,72.3,106.18,71.64,105.57,71.28z M44.56,50.05
			l8-4.8l8,4.8v9.73l-8,4.8l-8-4.8V50.05z M102.56,83.74l-9.1,5.01L70.28,76.21c-0.42-0.22-0.9-0.3-1.36-0.2L51.6,79.63l-12.42-7.47
			l4.21-8.41l8.15,4.89c0.32,0.19,0.67,0.29,1.03,0.29c0.36,0,0.71-0.09,1.03-0.29l10-6c0.6-0.36,0.97-1.01,0.97-1.71v-12
			c0-0.7-0.37-1.35-0.97-1.71l-8.2-4.92l5.76-8.64l13.64,8.53l3.82,17.18c0.12,0.54,0.46,1.01,0.94,1.29l23.01,13.51V83.74z"/>
		<circle class="st1" cx="91.56" cy="77.92" r="3"/>
		<path class="st1" d="M64.18,87.1c-1.08-0.22-2.14,0.49-2.35,1.57l-2.45,12.25H46.02l-2.45-12.25c-0.11-0.56-0.46-1.05-0.96-1.34
			L30.44,80.3c-0.5-0.29-1.1-0.35-1.64-0.16l-11.84,4l-6.68-11.56l9.39-8.25c0.43-0.38,0.68-0.93,0.68-1.5V48.77
			c0-0.58-0.25-1.12-0.68-1.5l-9.39-8.25l6.68-11.56l11.84,4c0.54,0.18,1.14,0.12,1.64-0.16l12.18-7.03
			c0.5-0.29,0.85-0.77,0.96-1.33l2.45-12.01h13.36l2.45,12.01c0.11,0.56,0.46,1.05,0.96,1.33l12.17,7.03
			c0.5,0.29,1.1,0.34,1.64,0.16l11.84-4l6.68,11.56l-9.39,8.25c-0.83,0.73-0.91,1.99-0.18,2.82c0.73,0.83,1.99,0.91,2.82,0.18
			l10.62-9.33c0.72-0.63,0.89-1.68,0.41-2.5l-8.32-14.4c-0.48-0.83-1.47-1.2-2.37-0.89l-12.53,4.24l-10.61-6.13L62.98,8.52
			c-0.19-0.93-1.01-1.6-1.96-1.6H44.38c-0.95,0-1.77,0.67-1.96,1.6l-2.59,12.73l-10.61,6.13l-12.53-4.24
			c-0.9-0.3-1.9,0.07-2.37,0.89L6,38.44c-0.48,0.83-0.3,1.87,0.41,2.5l9.94,8.73v12.25l-9.94,8.73C5.7,71.28,5.52,72.33,6,73.16
			l8.32,14.4c0.48,0.83,1.48,1.2,2.37,0.89l12.53-4.24l10.61,6.12l2.59,12.97c0.19,0.93,1.01,1.61,1.96,1.61h16.63
			c0.95,0,1.77-0.67,1.96-1.61l2.77-13.86C65.97,88.37,65.26,87.32,64.18,87.1z"/>
	</g>
</g>
</svg>
