<?xml version="1.0" encoding="utf-8"?>
<!-- Generator: Adobe Illustrator 23.0.1, SVG Export Plug-In . SVG Version: 6.00 Build 0)  -->
<svg version="1.1" id="Capa_1" xmlns="http://www.w3.org/2000/svg" xmlns:xlink="http://www.w3.org/1999/xlink" x="0px" y="0px"
	 viewBox="0 0 32 26" style="enable-background:new 0 0 32 26;" xml:space="preserve">
<style type="text/css">
	.st0{fill:#293A56;}
</style>
<g>
	<title>work</title>
	<path class="st0" d="M24.4,8.2h-4.8V5.8c0-0.33-0.27-0.6-0.6-0.6h-6c-0.33,0-0.6,0.27-0.6,0.6v2.4H7.6c-0.66,0-1.2,0.54-1.2,1.2
		v10.2c0,0.66,0.54,1.2,1.2,1.2h16.8c0.66,0,1.2-0.54,1.2-1.2V9.4C25.6,8.74,25.06,8.2,24.4,8.2z M13.6,6.4h4.8v1.8h-4.8V6.4z
		 M7.6,9.4h16.8v2.7l0,0c0,1.33-1.07,2.4-2.4,2.4h-4.2v-0.6c0-0.66-0.54-1.2-1.2-1.2h-1.2c-0.66,0-1.2,0.54-1.2,1.2v0.6H10
		c-1.33,0-2.4-1.07-2.4-2.4V9.4z M16.6,16.3h-1.2v-2.4h1.2v1.2l0,0V16.3z M7.6,19.6v-4.82c0.66,0.59,1.51,0.92,2.4,0.92h4.2v0.6
		c0,0.66,0.54,1.2,1.2,1.2h1.2c0.66,0,1.2-0.54,1.2-1.2v-0.6H22c0.89,0,1.74-0.33,2.4-0.92v4.82H7.6z"/>
</g>
</svg>
