<?xml version="1.0" encoding="utf-8"?>
<!-- Generator: Adobe Illustrator 23.0.1, SVG Export Plug-In . SVG Version: 6.00 Build 0)  -->
<svg version="1.1" id="Capa_1" xmlns="http://www.w3.org/2000/svg" xmlns:xlink="http://www.w3.org/1999/xlink" x="0px" y="0px"
	 viewBox="0 0 32 26" style="enable-background:new 0 0 32 26;" xml:space="preserve">
<style type="text/css">
	.st0{fill:#293A56;stroke:#293A56;stroke-width:0.5;stroke-miterlimit:10;}
</style>
<g>
	<g>
		<path class="st0" d="M24,6.89H8.98c-1.34,0-2.45,1.1-2.45,2.46v8.3c0,1.35,1.09,2.46,2.45,2.46h15.04c1.34,0,2.45-1.1,2.45-2.46
			V9.33C26.45,7.98,25.36,6.89,24,6.89z M25.64,17.62c0,0.92-0.75,1.65-1.65,1.65H9.01c-0.92,0-1.65-0.75-1.65-1.65V9.38
			c0-0.92,0.75-1.65,1.65-1.65h14.97c0.92,0,1.65,0.75,1.65,1.65L25.64,17.62z"/>
		<path class="st0" d="M23.78,10.33c-0.05-0.18-0.22-0.29-0.4-0.29h-5.84c-0.26,0-0.49,0.24-0.4,0.55c0.05,0.18,0.22,0.29,0.4,0.29
			h5.84C23.64,10.88,23.86,10.63,23.78,10.33z"/>
		<path class="st0" d="M23.78,13.48c-0.05-0.18-0.22-0.29-0.4-0.29h-5.84c-0.26,0-0.49,0.24-0.4,0.55c0.05,0.18,0.22,0.29,0.4,0.29
			h5.84C23.64,14.02,23.86,13.78,23.78,13.48z"/>
		<path class="st0" d="M23.78,16.42c-0.05-0.18-0.22-0.29-0.4-0.29h-5.84c-0.22,0-0.42,0.18-0.42,0.42c0,0.22,0.18,0.42,0.42,0.42
			h5.84C23.64,16.97,23.86,16.72,23.78,16.42z"/>
		<path class="st0" d="M13.57,13.11c0.42-0.36,0.69-0.9,0.69-1.49c0-1.09-0.88-1.97-1.97-1.97s-1.97,0.88-1.97,1.97
			c0,0.61,0.27,1.13,0.69,1.49c-1.01,0.52-1.7,1.64-1.7,2.94c0,0.31,0.15,0.88,1.05,1.26c0.52,0.21,1.2,0.34,1.93,0.34
			c1.49,0,2.98-0.48,2.98-1.58C15.27,14.77,14.58,13.64,13.57,13.11z M11.11,11.62c0-0.65,0.53-1.18,1.18-1.18s1.18,0.53,1.18,1.18
			c0,0.65-0.52,1.18-1.18,1.18S11.11,12.27,11.11,11.62z M12.29,16.85c-1.2,0-2.18-0.36-2.18-0.8c0-1.36,0.99-2.48,2.18-2.48
			s2.18,1.11,2.18,2.48C14.5,16.49,13.49,16.85,12.29,16.85z"/>
	</g>
</g>
</svg>
